<svg width="77" height="16" viewBox="0 0 77 16" fill="none" xmlns="http://www.w3.org/2000/svg">
<g clip-path="url(#clip0_153_159)">
<path d="M12.6667 2H3.33333C2.59333 2 2 2.6 2 3.33333V12.6667C2 13.4 2.59333 14 3.33333 14H12.6667C13.4067 14 14 13.4 14 12.6667V3.33333C14 2.6 13.4067 2 12.6667 2ZM6.66667 11.3333L3.33333 8L4.27333 7.06L6.66667 9.44667L11.7267 4.38667L12.6667 5.33333L6.66667 11.3333Z" fill="#FEFEFE"/>
</g>
<path d="M29.444 3.124V13.912H28.46V3.124H29.444ZM23.768 3.952C24.168 3.952 24.536 4.04 24.872 4.216C25.208 4.392 25.496 4.644 25.736 4.972C25.976 5.3 26.164 5.696 26.3 6.16C26.436 6.616 26.504 7.132 26.504 7.708C26.504 8.284 26.436 8.804 26.3 9.268C26.164 9.724 25.976 10.116 25.736 10.444C25.496 10.772 25.208 11.024 24.872 11.2C24.536 11.376 24.168 11.464 23.768 11.464C23.368 11.464 23 11.376 22.664 11.2C22.328 11.024 22.04 10.772 21.8 10.444C21.56 10.116 21.372 9.724 21.236 9.268C21.1 8.804 21.032 8.284 21.032 7.708C21.032 7.132 21.1 6.616 21.236 6.16C21.372 5.696 21.56 5.3 21.8 4.972C22.04 4.644 22.328 4.392 22.664 4.216C23 4.04 23.368 3.952 23.768 3.952ZM23.768 4.84C23.504 4.84 23.26 4.908 23.036 5.044C22.82 5.18 22.632 5.372 22.472 5.62C22.312 5.868 22.188 6.172 22.1 6.532C22.012 6.884 21.968 7.276 21.968 7.708C21.968 8.148 22.012 8.544 22.1 8.896C22.188 9.248 22.312 9.552 22.472 9.808C22.632 10.056 22.82 10.248 23.036 10.384C23.26 10.52 23.504 10.588 23.768 10.588C24.032 10.588 24.272 10.52 24.488 10.384C24.704 10.248 24.892 10.056 25.052 9.808C25.212 9.552 25.336 9.248 25.424 8.896C25.512 8.544 25.556 8.148 25.556 7.708C25.556 7.276 25.512 6.884 25.424 6.532C25.336 6.172 25.212 5.868 25.052 5.62C24.892 5.372 24.704 5.18 24.488 5.044C24.272 4.908 24.032 4.84 23.768 4.84ZM34.9991 5.152H32.7431V10.216H34.9991V5.152ZM37.5071 3.364H38.4431V13.348H37.5071V7.996H35.9111V10.996H31.8191V4.372H35.9111V7.18H37.5071V3.364ZM40.5791 3.124V13.876H39.6431V3.124H40.5791ZM51.0661 8.644H50.0821V3.124H51.0661V8.644ZM43.4341 5.908C43.4341 6.14 43.4781 6.352 43.5661 6.544C43.6621 6.736 43.7901 6.904 43.9501 7.048C44.1181 7.184 44.3101 7.292 44.5261 7.372C44.7501 7.452 44.9941 7.492 45.2581 7.492C45.5221 7.492 45.7661 7.452 45.9901 7.372C46.2141 7.292 46.4061 7.184 46.5661 7.048C46.7261 6.904 46.8501 6.736 46.9381 6.544C47.0341 6.352 47.0821 6.14 47.0821 5.908C47.0821 5.676 47.0341 5.464 46.9381 5.272C46.8501 5.072 46.7261 4.904 46.5661 4.768C46.4061 4.624 46.2141 4.512 45.9901 4.432C45.7661 4.352 45.5221 4.312 45.2581 4.312C44.9941 4.312 44.7501 4.352 44.5261 4.432C44.3101 4.512 44.1181 4.624 43.9501 4.768C43.7901 4.904 43.6621 5.072 43.5661 5.272C43.4781 5.464 43.4341 5.676 43.4341 5.908ZM48.0421 5.908C48.0421 6.26 47.9701 6.584 47.8261 6.88C47.6901 7.168 47.4981 7.416 47.2501 7.624C47.0021 7.832 46.7061 7.996 46.3621 8.116C46.0261 8.228 45.6581 8.284 45.2581 8.284C44.8581 8.284 44.4861 8.228 44.1421 8.116C43.8061 7.996 43.5141 7.832 43.2661 7.624C43.0181 7.416 42.8261 7.168 42.6901 6.88C42.5541 6.584 42.4861 6.26 42.4861 5.908C42.4861 5.548 42.5541 5.224 42.6901 4.936C42.8261 4.64 43.0181 4.388 43.2661 4.18C43.5141 3.964 43.8061 3.8 44.1421 3.688C44.4861 3.568 44.8581 3.508 45.2581 3.508C45.6581 3.508 46.0261 3.568 46.3621 3.688C46.7061 3.8 47.0021 3.964 47.2501 4.18C47.4981 4.388 47.6901 4.64 47.8261 4.936C47.9701 5.224 48.0421 5.548 48.0421 5.908ZM51.4261 12.964V13.744H44.1181V11.044H50.0941V9.952H44.0941V9.172H51.0661V11.776H45.0901V12.964H51.4261ZM59.1968 6.28C59.1968 6.728 59.2688 7.18 59.4128 7.636C59.5648 8.084 59.7688 8.512 60.0248 8.92C60.2808 9.32 60.5768 9.684 60.9128 10.012C61.2568 10.332 61.6248 10.584 62.0168 10.768L61.4288 11.536C61.1248 11.384 60.8368 11.192 60.5648 10.96C60.2928 10.728 60.0368 10.468 59.7968 10.18C59.5648 9.884 59.3528 9.568 59.1608 9.232C58.9768 8.888 58.8248 8.528 58.7048 8.152C58.5848 8.552 58.4328 8.936 58.2488 9.304C58.0648 9.664 57.8528 10 57.6128 10.312C57.3808 10.624 57.1248 10.904 56.8448 11.152C56.5648 11.4 56.2728 11.604 55.9688 11.764L55.3928 10.984C55.7768 10.792 56.1368 10.532 56.4728 10.204C56.8168 9.868 57.1168 9.488 57.3728 9.064C57.6368 8.64 57.8408 8.192 57.9848 7.72C58.1368 7.24 58.2128 6.76 58.2128 6.28V5.032H55.7768V4.228H61.6448V5.032H59.1968V6.28ZM64.3448 3.124V13.9H63.3608V7.84H61.0328V7.036H63.3608V3.124H64.3448ZM72.0478 9.1C71.4318 8.9 70.8998 8.6 70.4518 8.2C70.0118 7.792 69.6758 7.32 69.4438 6.784C69.2118 7.4 68.8638 7.936 68.3998 8.392C67.9358 8.848 67.3798 9.192 66.7318 9.424L66.2278 8.644C66.6358 8.5 67.0038 8.312 67.3318 8.08C67.6678 7.84 67.9518 7.568 68.1838 7.264C68.4238 6.96 68.6078 6.628 68.7358 6.268C68.8638 5.9 68.9278 5.524 68.9278 5.14V4.72H66.5158V3.928H72.2878V4.72H69.9118V5.14C69.9118 5.492 69.9718 5.832 70.0918 6.16C70.2198 6.488 70.3958 6.792 70.6198 7.072C70.8438 7.344 71.1158 7.592 71.4358 7.816C71.7558 8.032 72.1158 8.204 72.5158 8.332L72.0478 9.1ZM71.2078 13.096C72.0078 13.096 72.6318 12.992 73.0798 12.784C73.5358 12.568 73.7638 12.268 73.7638 11.884C73.7638 11.5 73.5358 11.204 73.0798 10.996C72.6318 10.788 72.0078 10.684 71.2078 10.684C70.3998 10.684 69.7678 10.788 69.3118 10.996C68.8638 11.204 68.6398 11.5 68.6398 11.884C68.6398 12.268 68.8638 12.568 69.3118 12.784C69.7678 12.992 70.3998 13.096 71.2078 13.096ZM71.2078 9.904C71.7518 9.904 72.2398 9.948 72.6718 10.036C73.1118 10.124 73.4838 10.256 73.7878 10.432C74.0998 10.6 74.3358 10.808 74.4958 11.056C74.6638 11.296 74.7478 11.572 74.7478 11.884C74.7478 12.196 74.6638 12.476 74.4958 12.724C74.3358 12.972 74.0998 13.18 73.7878 13.348C73.4838 13.524 73.1118 13.656 72.6718 13.744C72.2398 13.832 71.7518 13.876 71.2078 13.876C70.1038 13.876 69.2358 13.7 68.6038 13.348C67.9718 13.004 67.6558 12.516 67.6558 11.884C67.6558 11.26 67.9718 10.776 68.6038 10.432C69.2358 10.08 70.1038 9.904 71.2078 9.904ZM76.2238 5.848V6.676H74.6278V9.628H73.6438V3.136H74.6278V5.848H76.2238Z" fill="#FEFEFE"/>
<defs>
<clipPath id="clip0_153_159">
<rect width="16" height="16" fill="white"/>
</clipPath>
</defs>
</svg>
