<svg width="20" height="20" viewBox="0 0 20 20" fill="none" xmlns="http://www.w3.org/2000/svg">
<g id="&#236;&#149;&#132;&#236;&#157;&#180;&#236;&#189;&#152; / &#235;&#161;&#156;&#235;&#148;&#169; &#236;&#138;&#164;&#237;&#148;&#188;&#235;&#132;&#136;" clip-path="url(#clip0_153_210)">
<path id="Vector" d="M1.60003 6.01563L5.12803 8.05263C5.21186 8.09943 5.30419 8.12906 5.3996 8.13977C5.49502 8.15048 5.59161 8.14207 5.68374 8.11502C5.77586 8.08798 5.86168 8.04284 5.93616 7.98225C6.01064 7.92165 6.0723 7.84682 6.11753 7.76213L6.12503 7.74913C6.17455 7.66761 6.20746 7.57709 6.22185 7.4828C6.23623 7.3885 6.23182 7.29229 6.20886 7.19971C6.1859 7.10713 6.14485 7.02001 6.08807 6.94336C6.03129 6.86672 5.95991 6.80206 5.87803 6.75313L2.35003 4.71663C2.17764 4.61717 1.9728 4.59027 1.78057 4.64184C1.58835 4.69342 1.42448 4.81924 1.32503 4.99163C1.22557 5.16402 1.19867 5.36886 1.25024 5.56108C1.30182 5.75331 1.42764 5.91717 1.60003 6.01663V6.01563Z" fill="#C8CDE2"/>
<path id="Vector_2" d="M13.912 7.75014C13.9574 7.83442 14.0191 7.90882 14.0935 7.96901C14.1679 8.0292 14.2536 8.07397 14.3455 8.10073C14.4374 8.12749 14.5337 8.13569 14.6288 8.12486C14.7239 8.11403 14.8159 8.08438 14.8995 8.03764L18.3995 6.01614C18.5719 5.91668 18.6977 5.75282 18.7493 5.5606C18.8008 5.36837 18.7739 5.16353 18.6745 4.99114C18.575 4.81875 18.4112 4.69293 18.2189 4.64136C18.0267 4.58978 17.8219 4.61669 17.6495 4.71614L14.1495 6.73764C14.0671 6.78665 13.9954 6.85155 13.9383 6.92857C13.8813 7.00558 13.8402 7.09317 13.8173 7.18624C13.7945 7.2793 13.7904 7.37598 13.8053 7.47064C13.8201 7.56531 13.8537 7.65607 13.904 7.73764L13.912 7.75014Z" fill="#919BC6"/>
<path id="Vector_3" d="M7.74991 6.11603L7.76291 6.10853C7.84698 6.063 7.92118 6.00122 7.98119 5.92679C8.04119 5.85235 8.08582 5.76674 8.11247 5.67492C8.13913 5.58309 8.14728 5.48689 8.13645 5.3919C8.12562 5.2969 8.09604 5.205 8.04941 5.12153L6.01541 1.60003C5.96616 1.51467 5.90059 1.43984 5.82242 1.37983C5.74426 1.31981 5.65504 1.27578 5.55986 1.25024C5.36764 1.19867 5.1628 1.22557 4.99041 1.32503C4.81802 1.42448 4.6922 1.58835 4.64062 1.78057C4.58905 1.9728 4.61595 2.17764 4.71541 2.35003L6.74991 5.87103C6.79901 5.95328 6.86396 6.02496 6.941 6.08189C7.01804 6.13883 7.10562 6.17988 7.19867 6.20268C7.29171 6.22547 7.38835 6.22955 7.48298 6.21468C7.57762 6.1998 7.66835 6.16627 7.74991 6.11603Z" fill="#C8CDE2"/>
<path id="Vector_4" d="M10.0175 5.49995H10.025C10.1182 5.50328 10.2112 5.48796 10.2984 5.45487C10.3856 5.42179 10.4653 5.37161 10.5328 5.30728C10.6004 5.24295 10.6544 5.16578 10.6917 5.08029C10.729 4.99479 10.7488 4.90271 10.75 4.80945V0.731445C10.75 0.532533 10.671 0.341767 10.5303 0.201115C10.3897 0.0604629 10.1989 -0.0185547 10 -0.0185547C9.80109 -0.0185547 9.61032 0.0604629 9.46967 0.201115C9.32902 0.341767 9.25 0.532533 9.25 0.731445V4.80995C9.25063 4.90246 9.26972 4.99391 9.30616 5.07895C9.34259 5.16398 9.39564 5.24089 9.46219 5.30515C9.52874 5.36942 9.60745 5.41975 9.6937 5.4532C9.77996 5.48665 9.87202 5.50254 9.9645 5.49995H10.0175Z" fill="#C8CDE2"/>
<path id="Vector_5" d="M5.51744 10V9.9645C5.51984 9.87208 5.50381 9.7801 5.47028 9.69394C5.43676 9.60777 5.38642 9.52914 5.32219 9.46264C5.25797 9.39613 5.18114 9.34308 5.0962 9.30657C5.01126 9.27006 4.9199 9.25083 4.82744 9.25H0.731445C0.532533 9.25 0.341767 9.32902 0.201115 9.46967C0.0604629 9.61032 -0.0185547 9.80109 -0.0185547 10C-0.0185547 10.1989 0.0604629 10.3897 0.201115 10.5303C0.341767 10.671 0.532533 10.75 0.731445 10.75H4.82744C4.91994 10.7492 5.01135 10.7301 5.09635 10.6936C5.18136 10.6571 5.25824 10.6041 5.32252 10.5375C5.3868 10.471 5.43718 10.3924 5.47074 10.3062C5.50429 10.22 5.52034 10.128 5.51794 10.0355L5.51744 10Z" fill="#C8CDE2"/>
<path id="Vector_6" d="M12.264 6.10303C12.3455 6.15244 12.436 6.18524 12.5302 6.19955C12.6245 6.21385 12.7206 6.20937 12.8131 6.18636C12.9055 6.16336 12.9926 6.12228 13.0691 6.0655C13.1457 6.00872 13.2102 5.93736 13.259 5.85553L15.2835 2.35003C15.3328 2.26467 15.3647 2.17045 15.3776 2.07274C15.3904 1.97503 15.3839 1.87575 15.3583 1.78057C15.3328 1.68539 15.2888 1.59618 15.2287 1.51801C15.1687 1.43985 15.0939 1.37427 15.0085 1.32503C14.8362 1.22557 14.6313 1.19867 14.4391 1.25024C14.2469 1.30182 14.083 1.42764 13.9835 1.60003L11.9585 5.10753C11.9117 5.19141 11.8821 5.28379 11.8714 5.37926C11.8607 5.47474 11.8692 5.57138 11.8964 5.66353C11.9235 5.75568 11.9688 5.84149 12.0295 5.91593C12.0902 5.99037 12.1652 6.05194 12.25 6.09703L12.264 6.10303Z" fill="#919BC6"/>
<path id="Vector_7" d="M12.264 13.8971L12.251 13.9046C12.1662 13.9497 12.0912 14.0113 12.0305 14.0857C11.9698 14.1602 11.9245 14.246 11.8973 14.3381C11.8702 14.4303 11.8617 14.5269 11.8724 14.6224C11.8831 14.7179 11.9127 14.8103 11.9595 14.8941L13.9845 18.4016C14.084 18.574 14.2478 18.6998 14.4401 18.7514C14.6323 18.803 14.8371 18.7761 15.0095 18.6766C15.1819 18.5772 15.3077 18.4133 15.3593 18.2211C15.4109 18.0289 15.384 17.824 15.2845 17.6516L13.26 14.1446C13.2112 14.0627 13.1466 13.9912 13.07 13.9343C12.9933 13.8775 12.9062 13.8363 12.8136 13.8133C12.721 13.7903 12.6248 13.7859 12.5304 13.8003C12.4361 13.8146 12.3456 13.8476 12.264 13.8971Z" fill="#24388D"/>
<path id="Vector_8" d="M6.10553 12.2188C6.0618 12.1365 6.00207 12.0637 5.92985 12.0048C5.85763 11.9459 5.77436 11.902 5.68494 11.8756C5.59552 11.8493 5.50175 11.8411 5.40912 11.8516C5.31649 11.862 5.22687 11.8908 5.14553 11.9363L1.60003 13.9843C1.42764 14.0837 1.30182 14.2476 1.25024 14.4398C1.19867 14.6321 1.22557 14.8369 1.32503 15.0093C1.42448 15.1817 1.58835 15.3075 1.78057 15.3591C1.9728 15.4106 2.17764 15.3837 2.35003 15.2843L5.89653 13.2368C5.97606 13.1894 6.04541 13.1268 6.10056 13.0525C6.15572 12.9781 6.19559 12.8936 6.21786 12.8038C6.24014 12.7139 6.24437 12.6206 6.23033 12.5291C6.21628 12.4376 6.18423 12.3498 6.13603 12.2708C6.12453 12.2528 6.11503 12.2358 6.10553 12.2188Z" fill="#C8CDE2"/>
<path id="Vector_9" d="M19.2685 9.25H15.236C15.1399 9.25103 15.045 9.27112 14.9567 9.3091C14.8684 9.34708 14.7886 9.40219 14.7218 9.47125C14.6549 9.54031 14.6025 9.62194 14.5674 9.71141C14.5323 9.80089 14.5154 9.89643 14.5175 9.9925V10.0075C14.5154 10.1036 14.5323 10.1991 14.5674 10.2886C14.6025 10.3781 14.6549 10.4597 14.7218 10.5287C14.7886 10.5978 14.8684 10.6529 14.9567 10.6909C15.045 10.7289 15.1399 10.749 15.236 10.75H19.2685C19.4674 10.75 19.6582 10.671 19.7988 10.5303C19.9395 10.3897 20.0185 10.1989 20.0185 10C20.0185 9.80109 19.9395 9.61032 19.7988 9.46967C19.6582 9.32902 19.4674 9.25 19.2685 9.25Z" fill="#5B6AA9"/>
<path id="Vector_10" d="M18.4 13.9846L14.9 11.9626C14.8164 11.916 14.7244 11.8864 14.6292 11.8757C14.5341 11.8649 14.4378 11.8732 14.3459 11.9C14.254 11.9268 14.1684 11.9716 14.094 12.0318C14.0196 12.092 13.9579 12.1664 13.9125 12.2506L13.905 12.2636C13.8547 12.3452 13.8211 12.436 13.8062 12.5306C13.7914 12.6253 13.7955 12.722 13.8183 12.8151C13.8412 12.9081 13.8823 12.9957 13.9393 13.0727C13.9963 13.1497 14.0681 13.2146 14.1505 13.2636L17.6505 15.2851C17.8229 15.3846 18.0277 15.4115 18.2199 15.3599C18.3151 15.3344 18.4043 15.2904 18.4825 15.2303C18.5606 15.1703 18.6262 15.0955 18.6755 15.0101C18.7247 14.9248 18.7567 14.8306 18.7695 14.7329C18.7823 14.6351 18.7758 14.5359 18.7502 14.4407C18.7247 14.3455 18.6807 14.2563 18.6207 14.1781C18.5606 14.1 18.4858 14.0344 18.4005 13.9851L18.4 13.9846Z" fill="#5B6AA9"/>
<path id="Vector_11" d="M10.0175 14.5H9.9645C9.87202 14.4974 9.77996 14.5133 9.6937 14.5467C9.60745 14.5802 9.52874 14.6305 9.46219 14.6948C9.39564 14.759 9.34259 14.8359 9.30616 14.921C9.26972 15.006 9.25063 15.0974 9.25 15.19V19.2685C9.25 19.4674 9.32902 19.6581 9.46967 19.7988C9.61032 19.9394 9.80109 20.0185 10 20.0185C10.1989 20.0185 10.3897 19.9394 10.5303 19.7988C10.671 19.6581 10.75 19.4674 10.75 19.2685V15.1905C10.7488 15.0972 10.729 15.0051 10.6917 14.9196C10.6544 14.8341 10.6004 14.757 10.5328 14.6926C10.4653 14.6283 10.3856 14.5781 10.2984 14.545C10.2112 14.5119 10.1182 14.4966 10.025 14.5H10.0175Z" fill="#24388D"/>
<path id="Vector_12" d="M7.73101 13.8729C7.65198 13.824 7.564 13.7913 7.4722 13.7767C7.3804 13.7621 7.28661 13.766 7.19632 13.7881C7.10602 13.8101 7.02103 13.85 6.94629 13.9052C6.87155 13.9605 6.80856 14.0301 6.76101 14.1099L4.71651 17.6499C4.61705 17.8223 4.59015 18.0272 4.64172 18.2194C4.6933 18.4116 4.81912 18.5755 4.99151 18.6749C5.1639 18.7744 5.36874 18.8013 5.56096 18.7497C5.75319 18.6982 5.91705 18.5723 6.01651 18.3999L8.06001 14.8599C8.10536 14.7789 8.13414 14.6897 8.14467 14.5974C8.15521 14.5052 8.14728 14.4118 8.12136 14.3226C8.09545 14.2335 8.05205 14.1504 7.9937 14.0781C7.93536 14.0059 7.86322 13.946 7.78151 13.9019L7.73101 13.8729Z" fill="#C8CDE2"/>
</g>
<defs>
<clipPath id="clip0_153_210">
<rect width="20" height="20" fill="white"/>
</clipPath>
</defs>
</svg>
